<svg xmlns="http://www.w3.org/2000/svg" viewBox="0 0 99 42.31">
    <defs>
        <style>.a{fill:#fff;}</style>
    </defs>
    <polygon class="a"
             points="0 0 0 39.24 17.69 39.24 17.69 37.56 1.69 37.56 1.69 1.69 97.32 1.69 97.32 37.56 81.17 37.56 81.17 39.24 99 39.24 99 0 0 0"/>
    <path class="a" d="M26.67,42.2V39H22.58V42.2H21.15V34.56h1.42v3.15h4.09V34.56h1.42V42.2Z"/>
    <path class="a"
          d="M39.07,38.38A4.06,4.06,0,1,1,35,34.46,4,4,0,0,1,39.07,38.38Zm-6.63,0A2.58,2.58,0,1,0,35,35.79,2.56,2.56,0,0,0,32.43,38.38Z"/>
    <path class="a" d="M47.29,42.2l-4-5.34V42.2h-1.4V34.56h1.5l4,5.34V34.56h1.4V42.2Z"/>
    <path class="a"
          d="M59.68,38.38a4.06,4.06,0,1,1-4.06-3.93A4,4,0,0,1,59.68,38.38Zm-6.63,0a2.58,2.58,0,1,0,2.58-2.6A2.56,2.56,0,0,0,53,38.38Z"/>
    <path class="a"
          d="M65.89,34.56c2.36,0,3.3.75,3.3,2.51a2.07,2.07,0,0,1-1.67,2.31l1.91,2.82H67.79L66,39.57l-.48,0H64V42.2H62.55V34.56ZM64,38.48h2c1.27,0,1.75-.39,1.75-1.32s-.48-1.32-1.75-1.32H64Z"/>
    <path class="a"
          d="M77.84,35.28l-.6,1.1a5.92,5.92,0,0,0-2.68-.72c-.7,0-1.3.28-1.3.94,0,.42.25.62,1.65,1,1.87.5,3.13.84,3.13,2.41s-1.28,2.32-3.08,2.32a6.48,6.48,0,0,1-3.56-1L72,40.25a6.17,6.17,0,0,0,3.08.85c.76,0,1.43-.29,1.43-.93s-.51-.86-2-1.25c-1.78-.45-2.78-.86-2.78-2.15,0-1.6,1.34-2.31,3-2.31A6.12,6.12,0,0,1,77.84,35.28Z"/>
    <polygon class="a"
             points="26.41 9.64 26.41 27.14 27.78 27.33 27.78 28.35 20.99 28.35 20.99 27.33 22.45 27.14 22.45 19.18 13.77 19.18 13.77 27.14 15.11 27.33 15.11 28.35 8.44 28.35 8.44 27.33 9.78 27.14 9.78 9.64 8.44 9.46 8.44 8.47 15.11 8.47 15.11 9.46 13.77 9.64 13.77 17.13 22.45 17.13 22.45 9.64 20.99 9.46 20.99 8.47 27.78 8.47 27.78 9.46 26.41 9.64"/>
    <polygon class="a"
             points="35.67 27.27 36.95 27.45 36.95 28.35 30.71 28.35 30.71 27.45 31.99 27.27 31.99 15.29 30.71 15.11 30.71 14.2 35.67 14.2 35.67 27.27"/>
    <polygon class="a"
             points="39.66 27.47 40.91 27.3 40.91 9.52 39.66 9.35 39.66 8.47 44.63 8.47 44.63 27.3 45.91 27.47 45.91 28.35 39.66 28.35 39.66 27.47"/>
    <path class="a"
          d="M53.49,14.2h3.35v1.33H53.49v8.42c0,2.17.46,2.87,2.44,2.87a8.22,8.22,0,0,0,2-.15v1a14,14,0,0,1-4.6.91c-2.86,0-3.53-1.3-3.53-3.77V15.53H47.16V14.2h2.71v-3l3.63-1.09Z"/>
    <path class="a"
          d="M73.63,21.41c0,4.41-3,7.36-7.68,7.36-4.54,0-7.43-1.93-7.43-7.36,0-4.56,3-7.6,7.68-7.6s7.43,2.75,7.43,7.6m-4.08-.09c0-4.47-1.34-6.43-3.5-6.43s-3.44,1.87-3.44,6.43,1.34,6.37,3.44,6.37c2.26,0,3.5-1.78,3.5-6.37"/>
    <path class="a"
          d="M90.57,27.45v.9H84.32v-.9l1.25-.18V19.21C85.57,17,84.75,16,83,16a6.26,6.26,0,0,0-3,1.18V27.27l1.28.18v.9H75.09v-.9l1.28-.18V15.38l-1.28-.18v-1h5v2c1.55-1.24,3-2.23,5.15-2.23,2.8,0,4.05,1.63,4.05,4.83v8.51Z"/>
    <path class="a" d="M35.85,10.46a2,2,0,1,1-2-2,2,2,0,0,1,2,2"/>
</svg>
